<svg xmlns="http://www.w3.org/2000/svg">

    <g id="logo" transform="matrix(0.1, 0, 0, -0.1, 852.922446, -802.457253)"
       style="transform-origin: -852.922px 802.457px;">
        <path d="M -852.922 665.457 L -852.922 527.457 L -797.922 617.457 C -736.922 719.457 -728.922 756.457 -767.922 766.457 C -802.922 775.457 -788.922 792.457 -746.922 792.457 C -713.922 792.457 -712.922 791.457 -712.922 750.457 C -712.922 715.457 -725.922 686.457 -782.922 590.457 L -852.922 472.457 L -852.922 387.457 L -852.922 302.457 L -602.922 302.457 L -352.922 302.457 L -352.922 552.457 L -352.922 802.457 L -602.922 802.457 L -852.922 802.457 L -852.922 665.457 Z M -492.922 745.457 C -492.922 704.457 -483.922 681.457 -427.922 589.457 L -362.922 481.457 L -362.922 396.457 L -362.922 312.457 L -477.922 312.457 L -591.922 312.457 L -594.922 384.457 C -597.922 455.457 -598.922 457.457 -624.922 460.457 C -645.922 462.457 -659.922 475.457 -677.922 506.457 L -702.922 549.457 L -676.922 596.457 C -655.922 634.457 -645.922 642.457 -621.922 642.457 C -605.922 642.457 -592.922 637.457 -592.922 631.457 C -592.922 625.457 -578.922 607.457 -561.922 591.457 C -530.922 562.457 -528.922 537.457 -554.922 505.457 C -578.922 475.457 -592.922 491.457 -592.922 547.457 C -592.922 593.457 -595.922 602.457 -610.922 602.457 C -636.922 602.457 -652.922 582.457 -652.922 551.457 C -652.922 521.457 -629.922 492.457 -606.922 492.457 C -598.922 492.457 -592.922 485.457 -592.922 477.457 C -592.922 468.457 -583.922 462.457 -568.922 462.457 C -550.922 462.457 -538.922 473.457 -519.922 506.457 L -495.922 550.457 L -521.922 596.457 C -540.922 629.457 -553.922 642.457 -569.922 642.457 C -591.922 642.457 -592.922 646.457 -592.922 717.457 L -592.922 792.457 L -542.922 792.457 L -492.922 792.457 L -492.922 745.457 Z M -362.922 660.457 L -362.922 527.457 L -417.922 617.457 C -480.922 721.457 -490.922 772.457 -446.922 772.457 C -432.922 772.457 -423.922 776.457 -427.922 782.457 C -431.922 788.457 -419.922 792.457 -398.922 792.457 L -362.922 792.457 L -362.922 660.457 Z"
        />
    </g>


</svg>

